<svg xmlns="http://www.w3.org/2000/svg" viewBox="0 0 24 24"><path fill="#303c42" d="M12.47 11.66 1.87.16A.5.5 0 0 0 1 .5v23a.5.5 0 0 0 .87.34l10.6-11.5a.5.5 0 0 0 0-.68zm1.4 1.52a.52.52 0 0 0-.74 0l-8.28 9a.5.5 0 0 0 .62.77c3.2-1.85 7.18-4.19 10.75-6.31a.5.5 0 0 0 .11-.77zm8.63-2.06L18 8.45a.5.5 0 0 0-.62.09l-2.88 3.12a.5.5 0 0 0 0 .68l2.88 3.12a.5.5 0 0 0 .62.09l4.46-2.67a1 1 0 0 0 0-1.77zm-.26.43zm-9.1-.73a.5.5 0 0 0 .74 0l2.47-2.68a.5.5 0 0 0-.11-.77C12.65 5.25 8.67 2.92 5.48 1.06a.5.5 0 0 0-.62.77z" data-name="Google Play"/></svg>